#!OML:ASF X:\für Bonn\!DataBase\2005_08_10_Bjorn_Final\c3d\bjorn.ASF
:FULLY-SPECIFIED
:DEGREES
182
root -25.8311 18.6754 -3.597 -1438.88 18.7877 -9.78388
lowerback -0.185949 6.07015 8.61
upperback 6.77792 7.83524 -0.0688493
thorax 8.49006 4.44125 -4.16234
lowerneck 2.23559 4.34032 4.53108
upperneck -0.905237 5.84349 -6.42091
head -0.325263 2.96256 -2.86541
rclavicle -1.61016e-014 8.34896e-015
rhumerus -35.6458 27.7132 -107.49
rradius 87.5296
rwrist 5.4845
rhand -24.4199 31.0938
rfingers 7.12502
rthumb 2.07185 1.12414
lclavicle -1.61016e-014 8.34896e-015
lhumerus -57.6734 -20.9366 98.4424
lradius 83.971
lwrist -9.23483
lhand -40.6463 -23.8458
lfingers 7.12502
lthumb -13.5908 5.69057
rfemur 7.56907 -1.40288 10.3584
rtibia 42.6179
rfoot 8.97682 18.5732
rtoes -28.7895
lfemur -33.219 10.7513 -28.7151
ltibia 39.3418
lfoot -10.359 -0.74941
ltoes 5.3061
183
root -25.7107 18.6056 -3.35828 -1439.17 19.3847 -9.72287
lowerback -0.184042 5.97463 8.48668
upperback 6.84463 7.73132 -0.34547
thorax 8.57018 4.40074 -4.39548
lowerneck 2.35809 4.31397 4.74754
upperneck -1.16026 5.8116 -6.03927
head -0.434298 2.94465 -2.78613
rclavicle -5.14852e-014 2.10712e-014
rhumerus -36.2006 26.878 -107.731
rradius 86.5265
rwrist 5.52208
rhand -24.0761 31.5848
rfingers 7.12502
rthumb 2.4039 1.61864
lclavicle -5.14852e-014 2.10712e-014
lhumerus -56.9414 -21.0977 98.0481
lradius 84.4237
lwrist -9.18856
lhand -40.6703 -24.0525
lfingers 7.12502
lthumb -13.6139 5.48235
rfemur 6.91102 -1.3929 9.85205
rtibia 45.4248
rfoot 8.30767 17.7658
rtoes -27.3948
lfemur -32.3666 10.7654 -29.0972
ltibia 39.9039
lfoot -11.0335 -0.613612
ltoes 5.20281
184
root -25.5908 18.5296 -3.12236 -1439.43 20.0287 -9.52633
lowerback -0.175942 5.8523 8.2269
upperback 6.97824 7.59845 -0.639035
thorax 8.69664 4.34176 -4.5732
lowerneck 2.26145 4.29813 4.82448
upperneck -1.34328 5.78804 -5.56542
head -0.488545 2.92659 -2.64295
rclavicle 3.12092e-014 -1.82882e-014
rhumerus -36.6343 25.9412 -107.852
rradius 85.3723
rwrist 5.69309
rhand -24.0311 32.4281
rfingers 7.12502
rthumb 2.44736 2.46241
lclavicle 3.12092e-014 -1.82882e-014
lhumerus -56.0427 -21.296 97.6432
lradius 84.9028
lwrist -9.00599
lhand -40.7031 -24.2057
lfingers 7.12502
lthumb -13.6455 5.32706
rfemur 6.15199 -1.43064 9.17204
rtibia 48.3803
rfoot 7.22115 16.803
rtoes -27.8992
lfemur -31.4514 10.2869 -29.4701
ltibia 40.5559
lfoot -11.8039 -0.204925
ltoes 6.189
185
root -25.4711 18.4506 -2.88961 -1439.66 20.7276 -9.20422
lowerback -0.147093 5.68893 7.78868
upperback 7.18962 7.4187 -0.912605
thorax 8.85873 4.2504 -4.63642
lowerneck 1.73819 4.31241 4.92903
upperneck -1.23916 5.79596 -5.25985
head -0.370871 2.92052 -2.54262
rclavicle 8.98507e-014 -1.19271e-014
rhumerus -36.9359 25.0073 -107.782
rradius 84.1164
rwrist 6.01935
rhand -24.4366 33.2388
rfingers 7.12502
rthumb 2.0557 3.26893
lclavicle 8.98507e-014 -1.19271e-014
lhumerus -54.9559 -21.4089 97.2393
lradius 85.3861
lwrist -8.7471
lhand -40.6096 -24.2778
lfingers 7.12502
lthumb -13.5554 5.26096
rfemur 5.28024 -1.49349 8.34136
rtibia 51.4556
rfoot 6.33265 15.8655
rtoes -28.3406
lfemur -30.4824 9.31597 -29.8404
ltibia 41.2672
lfoot -12.8013 0.345346
ltoes 8.41057
186
root -25.3508 18.3679 -2.65882 -1439.84 21.4523 -8.80913
lowerback -0.104072 5.49345 7.21944
upperback 7.42671 7.20121 -1.14816
thorax 9.01078 4.12917 -4.59246
lowerneck 0.831401 4.36555 4.84021
upperneck -0.841046 5.84254 -4.86754
head -0.102159 2.93093 -2.36356
rclavicle 2.72335e-014 1.59028e-014
rhumerus -37.271 24.0846 -107.603
rradius 82.7999
rwrist 6.41824
rhand -25.2641 33.8155
rfingers 7.12502
rthumb 1.25649 3.8395
lclavicle 2.72335e-014 1.59028e-014
lhumerus -53.8399 -21.4382 96.8781
lradius 85.9079
lwrist -8.45022
lhand -40.5798 -24.2507
lfingers 7.12502
lthumb -13.5267 5.28998
rfemur 4.25732 -1.6201 7.40907
rtibia 54.6063
rfoot 5.608 15.0496
rtoes -28.8288
lfemur -29.5226 8.15014 -30.2684
ltibia 42.0325
lfoot -13.9479 0.927127
ltoes 10.5773
187
root -25.2296 18.2819 -2.43424 -1439.99 22.2249 -8.47229
lowerback -0.0658926 5.2539 6.6707
upperback 7.67626 6.92078 -1.3295
thorax 9.16849 3.97494 -4.50743
lowerneck -0.000391625 4.45925 4.59128
upperneck -0.652678 5.93925 -4.40988
head 0.0809933 2.96971 -2.14258
rclavicle 7.15625e-014 3.18055e-015
rhumerus -37.6424 23.1497 -107.346
rradius 81.4715
rwrist 6.92674
rhand -26.4244 34.2406
rfingers 7.12502
rthumb 0.135825 4.26095
lclavicle 7.15625e-014 3.18055e-015
lhumerus -52.6911 -21.3744 96.5348
lradius 86.544
lwrist -8.24431
lhand -40.7972 -24.0284
lfingers 7.12502
lthumb -13.7362 5.49825
rfemur 3.05703 -1.82048 6.5188
rtibia 57.7886
rfoot 5.13573 14.3956
rtoes -28.6039
lfemur -28.6294 6.8245 -30.661
ltibia 42.8656
lfoot -15.1334 1.60331
ltoes 12.0649
188
root -25.1079 18.1995 -2.2123 -1440.08 23.0316 -8.23579
lowerback -0.0217915 4.9929 6.17897
upperback 7.84893 6.60762 -1.47831
thorax 9.23978 3.80124 -4.4267
lowerneck -0.538159 4.54541 4.34672
upperneck -0.749576 6.03322 -3.99619
head 0.124515 3.01179 -1.95121
rclavicle 1.31198e-014 1.82882e-014
rhumerus -38.1789 22.0329 -107.124
rradius 80.1837
rwrist 7.65611
rhand -27.6887 34.6121
rfingers 7.12502
rthumb -1.08526 4.6351
lclavicle 1.31198e-014 1.82882e-014
lhumerus -51.6095 -21.2277 96.2285
lradius 87.3336
lwrist -7.96149
lhand -40.9863 -23.5756
lfingers 7.12502
lthumb -13.9184 5.9386
rfemur 1.65538 -2.07868 5.7461
rtibia 60.9517
rfoot 4.79748 13.8777
rtoes -27.4819
lfemur -27.8568 5.49157 -30.9922
ltibia 43.7515
lfoot -16.2558 2.23945
ltoes 13.0274
